<svg xmlns="http://www.w3.org/2000/svg" viewBox="0 0 100 100" fill="none">
  <!-- Background -->
  <rect width="100" height="100" rx="16" fill="#1A1A1A"/>
  <!-- Decorative brass accent lines -->
  <line x1="20" y1="65" x2="80" y2="65" stroke="#B8863C" stroke-width="1.5" stroke-linecap="round" opacity="0.6"/>
  <line x1="30" y1="70" x2="70" y2="70" stroke="#B8863C" stroke-width="1" stroke-linecap="round" opacity="0.3"/>
  <!-- Letter P -->
  <path d="M30 38V70M30 38C30 38 30 28 45 28C55 28 60 32 60 42C60 52 55 56 45 56H30" stroke="#B8863C" stroke-width="5" stroke-linecap="round" stroke-linejoin="round" fill="none"/>
  <!-- Letter S -->
  <path d="M58 48C58 42 62 38 70 38C76 38 80 41 80 46C80 50 77 53 72 54C66 56 62 58 60 62C58 66 60 70 68 70C74 70 78 67 80 64" stroke="#B8863C" stroke-width="5" stroke-linecap="round" stroke-linejoin="round" fill="none"/>
  <!-- Subtle wood grain texture dots -->
  <circle cx="22" cy="22" r="1.5" fill="#B8863C" opacity="0.15"/>
  <circle cx="78" cy="78" r="1.5" fill="#B8863C" opacity="0.15"/>
  <circle cx="78" cy="22" r="1" fill="#B8863C" opacity="0.1"/>
  <circle cx="22" cy="78" r="1" fill="#B8863C" opacity="0.1"/>
</svg>
